<svg id="Livello_1" data-name="Livello 1" xmlns="http://www.w3.org/2000/svg" viewBox="0 0 566.05 506.33"><defs><style>.cls-1{fill:#f49f97;}.cls-2{fill:#feddb4;}.cls-3{fill:#37b8c2;}.cls-4{fill:#2e979f;}.cls-5{fill:#57bfc7;}.cls-6{fill:#1d1900;opacity:0.2;}.cls-7{fill:#241f00;}.cls-8{fill:#2d2700;}.cls-9{fill:#302900;}.cls-10{fill:#332c00;}.cls-11{fill:#bfa98b;}.cls-12{fill:#f0f0f0;}.cls-13{fill:#fff;}.cls-14{fill:#432918;}.cls-15{fill:#603c29;}.cls-16{fill:#1d1d1b;}.cls-17,.cls-23{fill:none;}.cls-17{stroke:#c1ab8c;}.cls-17,.cls-23,.cls-26{stroke-miterlimit:10;}.cls-18{fill:#fddebd;}.cls-19{fill:#f8c1af;}.cls-20{fill:#b63f49;}.cls-21{fill:#802c31;}.cls-22{fill:#842d33;}.cls-23{stroke:#892f36;stroke-width:0.15px;}.cls-24{fill:#d64957;}.cls-25,.cls-26{fill:#5b3926;}.cls-26{stroke:#392212;stroke-width:0.5px;}.cls-27{fill:#3d858a;}</style></defs><path class="cls-1" d="M498.5,285.05l2.53-3.43s3.73.36,4.34.91l.15,4.16-7-1.64" transform="translate(-20.33 -172.34)"/><path class="cls-1" d="M573.8,311.47l5.41,2.24v1.59s-1,1-1.37.9-4.57-2.36-4.57-2.36l.53-2.37" transform="translate(-20.33 -172.34)"/><path class="cls-1" d="M581.28,315.82l.63,5.23,4.45-1.43s.15-2.33-.33-2.69a31.69,31.69,0,0,0-4.75-1.11" transform="translate(-20.33 -172.34)"/><polyline class="cls-1" points="555.39 152.89 558.87 151.55 558.21 149.77 554.72 149.77 555.39 152.89"/><path class="cls-1" d="M567.47,331l3.4-2.43s-.32-1.48-.75-1.67a16.93,16.93,0,0,0-3.25.21Z" transform="translate(-20.33 -172.34)"/><path class="cls-2" d="M436.09,362.84l24.09-28.29s5.54-21.5,15.73-28.05c13.59-8.74,18.36-9.61,21.71-19.65,2.73-8.19,15.66-4,1.38,16.55-2.65,3.82,27.09,11.37,33,11.09,15.83-.73,37.48-7.46,45.3-1.27,6.78,5.36-29.11,6.37-35.66,6.91-6.36.53-14.1-3.4-7.46-1.09,3.62,1.26,36.82-3.82,44-3.82,4.33,0,16,5.86-10.37,8.59-18.95,1.95-27.83,4.14-34,3.09-3.08-.53,37.49-7.89,43.73-4.23,3.21,1.87-6.44,4.41-20.08,6.77-8.38,1.46-21.65,5.06-22.19,2.55-.31-1.39,18-5.4,24-5.82,12.92-.91,15.1,3.82-.55,8.19-9.25,2.58-14.22,3.22-32.2,9.09-11.91,3.9-41.53.13-43.09,2.37-.88,1.26-16.59,38.81-16.59,38.81L431.6,366.3Z" transform="translate(-20.33 -172.34)"/><path class="cls-3" d="M272.72,393.94c2.91,2.91,40.75-8,58.21,0,0,0,53.85-26.19,64.77-22.56s-7.28-13.82,6.55-11.64-5.83-11.64,7.27-8.73,4.37.73,26.93,13.1,42.93,6.65,51.66,8.42,15.28,14.86,7.28,16.32-14.56,5.82-9.46,9.46,6.55,15.28-4.37,15.28-12.37,2.91-21.1,8-13.83,26.93-28.38,27.65-39.29,9.46-53.12,6.55-41.48-3.18-45.11.59-30.57,8.14-44.39,4.51" transform="translate(-20.33 -172.34)"/><path class="cls-4" d="M401.61,370.57s38.2,23.46,44.48,25.1-45.57-21-47.21-21.56S401.61,373.84,401.61,370.57Z" transform="translate(-20.33 -172.34)"/><path class="cls-4" d="M409,360.47s33.79,20.19,37.63,18.83S410.89,361,410.89,358.83,410.89,359.92,409,360.47Z" transform="translate(-20.33 -172.34)"/><path class="cls-4" d="M484.83,389.66s-18-1.63-23.46-3.81,14.73,7.91,17.19,7.91S482.92,390.2,484.83,389.66Z" transform="translate(-20.33 -172.34)"/><path class="cls-4" d="M331.75,395.75a31.87,31.87,0,0,1,14.74,13.84c5.73,10.37-4.76-10.4-8.46-13.84s-3,0-4.64,0" transform="translate(-20.33 -172.34)"/><path class="cls-5" d="M279.78,400.49s37.33-10.66,48.24,2.85S342.07,446,340,448.15s-33.14,13.34-42.13,9.1S266.1,401.58,279.78,400.49Z" transform="translate(-20.33 -172.34)"/><path class="cls-5" d="M345.49,395.75s28.38,34.57,25.83,43.67,37.11,8.73,48.75,2.18,18.32-21.83,26.81-24.37S409,385.9,398.51,383.37,348.78,388,345.49,395.75Z" transform="translate(-20.33 -172.34)"/><path class="cls-5" d="M409,364.47s-13.28-2-4.19,4.26,68,37.22,71.68,36.85,7.61-3.65-3.83-9.83S413.16,369,409,364.47Z" transform="translate(-20.33 -172.34)"/><path class="cls-5" d="M411.34,353.56c-.71-4.54,1,0,11.22,6.18s47.36,20.76,62.27,16.75,9.46,9,3.28,9.05S413.16,365.2,411.34,353.56Z" transform="translate(-20.33 -172.34)"/><path class="cls-5" d="M272.54,402.24s37.33-10.66,48.25,2.85,14,42.63,11.93,44.81-33.14,13.34-42.13,9.1S258.86,403.33,272.54,402.24Z" transform="translate(-20.33 -172.34)"/><path class="cls-6" d="M500.72,308.65a12,12,0,0,1-6.64,11.55s-3.62,2.3,1.66,7,27.9,4.89,28.54,4.89-7.56-7.9-5.47-11.27S508.82,320.11,500.72,308.65Z" transform="translate(-20.33 -172.34)"/><path class="cls-6" d="M497,293.4v1.09s4.49,1.64,5,1.52a.81.81,0,0,0,.61-.67S498.1,294.91,497,293.4Z" transform="translate(-20.33 -172.34)"/><path class="cls-6" d="M536.47,331.16v1c1-.37,2.52-.88,4.38-1.4a71.26,71.26,0,0,1,8.74-1.82c9.62-1.53,16.58-2.51,16.57-2.62h0A164.81,164.81,0,0,0,536.47,331.16Z" transform="translate(-20.33 -172.34)"/><path class="cls-6" d="M570.34,321.55c1.51.13-2.53-1.53-35.35,4.14v.62" transform="translate(-20.33 -172.34)"/><path class="cls-6" d="M573.35,315.6c1.64.12-7.27-.55-36.54,4.31v.56" transform="translate(-20.33 -172.34)"/><path class="cls-3" d="M293.21,392.21l-4.27,85.46s19.4,44.8-8.1,69.36c-15,13.41-4.47,37.79-4.47,37.79l.82,14.4-116.71,0L59.57,438.38s5.64-34.38,42.37-35c51.79-.94,54.05-6.55,54.05-6.55s62.22,8.52,69.75-4.58Z" transform="translate(-20.33 -172.34)"/><path class="cls-3" d="M95.3,403.85S53.89,413,54.87,458.16c0,0-9.82,50.1-18,79.9s-20,23.25-13.09,31.43c0,0,4.25,4.91,8.51,3.6s-6.76-2.62-10.58,1.64S23.11,598,25.08,611.4s-9.5,34.71,29.47,19,63.52-13.43,59.59-28.82c-2.46-9.64-5.44-15.17-8.37-18.68a24.61,24.61,0,0,0-5-4.57c-4.26-2.94-13.21-27.18-16.76-29.14s8.9,4.91,8.24,1,2-8.79-3.27-10.45.33,3,1.64,0,5.56-12.83,2-21.33,6.55-20.61,6.55-20.61,8.18-4.58,10.48-6.22S95.3,403.85,95.3,403.85Z" transform="translate(-20.33 -172.34)"/><path class="cls-3" d="M95.3,403.85S53.89,413,54.87,458.16c0,0-9.82,50.1-18,79.9s-20,23.25-13.09,31.43c0,0,4.25,4.91,8.51,3.6s-6.76-2.62-10.58,1.64S23.11,598,25.08,611.4s-9.5,34.71,29.47,19,63.52-13.43,59.59-28.82c-2.46-9.64-5.44-15.17-8.37-18.68a24.61,24.61,0,0,0-5-4.57c-4.26-2.94-13.21-27.18-16.76-29.14s8.9,4.91,8.24,1,2-8.79-3.27-10.45.33,3,1.64,0,5.56-12.83,2-21.33,6.55-20.61,6.55-20.61,8.18-4.58,10.48-6.22S95.3,403.85,95.3,403.85Z" transform="translate(-20.33 -172.34)"/><path class="cls-5" d="M81.07,552.79c-4,0-25.63-12.77-40.16-6.55,0,0-5.77,14.67-11.9,16s-3.39,4.67,0,7.2-2.05,2.29-3.65,5.24S28.68,614,28.68,614s26.85-18.33,62.87-15.71,10.15-12.77,8.18-16S86.31,552.79,81.07,552.79Z" transform="translate(-20.33 -172.34)"/><path class="cls-3" d="M81.4,567.2c-2-.66-44.17-8.11-49.45-3.93s-1.64,2.62,2.29,7.86-6.87,1-6.54,4.58,4.58-1,21.93,0,30.72-4.26,39.92-2S81.4,567.2,81.4,567.2Z" transform="translate(-20.33 -172.34)"/><path class="cls-4" d="M30.44,567.47c-.4.18,2.74,3.42,0,5.83-.15.12-.12.17-.11.19.16.55,10.29-3.09,20.25-3.93C64,568.42,76.77,572.37,76.83,572c0,0,0,0-.06,0C57.45,563.37,32.93,566.29,30.44,567.47Z" transform="translate(-20.33 -172.34)"/><path class="cls-5" d="M92.21,410.09c3,.05-4.25,28.35,0,36.87s6.55,19.64,9.17,21.28-14.24,46.53-14.06,58.61,5.26,22.27,0,20.31-25.23-14-37.67-8.82-8.52-1.66-6.55-6.9,13.42-71.71,14.41-72S58.81,409.57,92.21,410.09Z" transform="translate(-20.33 -172.34)"/><path class="cls-3" d="M99.66,465.49s-13.33,36.38-7,55.3,15.74,22,22.43,27.61c12.72,10.72,12.72,50.82,12.72,50.82l33.37,0" transform="translate(-20.33 -172.34)"/><path class="cls-5" d="M279.78,400.49s37.33-10.66,48.24,2.85S342.07,446,340,448.15s-33.14,13.34-42.13,9.1S266.1,401.58,279.78,400.49Z" transform="translate(-20.33 -172.34)"/><path class="cls-4" d="M287.51,461.61s6.16-4.56,6.06-2.67S279.48,408,277.2,406.43,276.59,425.9,287.51,461.61Z" transform="translate(-20.33 -172.34)"/><path class="cls-5" d="M105.91,462.25l40.37-21.75s60.42,6.64,77.8,0,37.14-3.63,37.14-3.63S280,469.61,284.68,487.8s.36,36.87-16.42,64.77c0,0-5.78,11.15,0,25.71s-126.16,18-126.41,13.09-6.22-36.55-15.72-44.34S84.28,532.51,105.91,462.25Z" transform="translate(-20.33 -172.34)"/><path class="cls-7" d="M244.36,335.48S177.07,354,208.25,400.07c8.65,12.81,51.83-7.16,45.29,3.31-5.31,8.51-17.73,45.79-9.91,64.39,20.38,48.47,24.5,68.77,12.62,79.25,0,0,13,2,13.66-49.12s7.15-98.65,19.52-104c9.37-4.1.16-1.89-.53-17.76-1.32-30,22.92-35.37,11.79-74s-8.52-44.53-9.83-67.45-45.19-72.69-86.44-56.32c0,0,3.27,6.61-25.54-3.24s-51.74,8.48-65.49,32.06-51.74,68.7-13.1,152.56c0,0,13.75,28.19-.66,47.18s36.88,128,36.88,128A134.85,134.85,0,0,1,161,425.69c9.89-15.85,36.52-44.13,19.78-65-10.43-13-19.56-59.88-13-63.16s49.12,14.41,49.12,38.64S244.36,335.48,244.36,335.48Z" transform="translate(-20.33 -172.34)"/><path class="cls-2" d="M113.11,284.27c3.11,31.14,20.29,57,53.57,68.53,22.13,7.64,52.46,9.71,71.62-14.74,42.57-54.35,15.72-123.57,0-127s-70.73-16.59-95,0C124.72,223.81,109.19,245,113.11,284.27Z" transform="translate(-20.33 -172.34)"/><path class="cls-8" d="M240.15,287.75s-15.8,48.9,1.23,61.34.73,53.27-1.23,61.78-8.84,52.4,8,69.42.49,68.11,3.77,68.11,29.47-67.45,22.92-93,13.75-61.56,18.35-63.2c6.9-2.45-10.49-27.83-5.91-37.66s2.62-112-8.51-132.29-16.28-26.19-16.28-26.19Z" transform="translate(-20.33 -172.34)"/><path class="cls-9" d="M197.43,201.53S215,180,242.22,194c0,0,22.66,1.64,27.9,38.31s21,73.35,21.61,85.79-21.88,68.1-13.75,79.24-13.1,17.69-13.1,30.13,4.38,100.92-.76,102.6-20.85-69.2-23.47-74.44S242,413.71,255.71,398s-9.16-29.66-9.82-36.77,10.48-47.06,10.48-56.88-17.11-89.73-40-96.28" transform="translate(-20.33 -172.34)"/><path class="cls-8" d="M203.47,192.63" transform="translate(-20.33 -172.34)"/><path class="cls-8" d="M202.33,194.92" transform="translate(-20.33 -172.34)"/><path class="cls-8" d="M201.26,198.28" transform="translate(-20.33 -172.34)"/><path class="cls-8" d="M199.71,202.86" transform="translate(-20.33 -172.34)"/><path class="cls-8" d="M197.25,205.16" transform="translate(-20.33 -172.34)"/><path class="cls-8" d="M198.89,208.59" transform="translate(-20.33 -172.34)"/><path class="cls-8" d="M191,205.53c-38.72,20.31-44.22,85.39-31.35,115.59,13,30.55,8.51,56,13.1,64.18S161,425.69,161,425.69l-60.9,2.72c1-.05,2.3-16.26,17-33s-16.08-63.85-17-70.73-19.63-51.08,24.25-116.57c0,0,26.78-44.8,65.81-18.33C208,201.93,191,205.53,191,205.53Z" transform="translate(-20.33 -172.34)"/><path class="cls-9" d="M153.54,321.12s-3.93,26.19,9.82,40.6,7.21,55,4.59,56.32-36.68,40.61-36.68,40.61-25.54,6.55-22.92,0,29.88-55,31.64-70.73-33.32-62.87-31.83-66.8-14.69-41.91,0-83.83S153.54,321.12,153.54,321.12Z" transform="translate(-20.33 -172.34)"/><path class="cls-9" d="M262.4,195.63c17.85,21.54,26.85,62.87,21,102.82S301,360.66,301,360.66c-23.54-11-40.44-23.73-52.4-37.87-21.62-25.57-27-55.58-26.18-87.21,1.31-49.12-21-10.48-21-10.48s-23.79-33.63-38,21.61c-20.16,78.46-59.6,116.57-77.94,102.17,0,0,21-24.89,18.34-39.95s-7.2-81.86,19-102.17,50.78-29.43,75.07-5.89C198,200.87,240.13,168.78,262.4,195.63Z" transform="translate(-20.33 -172.34)"/><path class="cls-10" d="M199.71,219.63s7.86-18.74,19.15-11.38,6.39,70.24,14.74,84,25.54,52.07,51.08,58.45c0,0-8.35-17.68-9.82-34.38s-3.18-97.42-13.76-108.06C244.49,191.55,217.88,174,199.71,219.63Z" transform="translate(-20.33 -172.34)"/><path class="cls-10" d="M192,209.57s-24.87,1.91-28.9,20.14c-21.93,99.38-48.62,97.74-56,104.62s-17.27,18.61-18.66,14.73c0,0,21.24-29.45,17.6-46.8-.51-2.41-1.86-24.78-1.86-24.78s10.11-83.27,51.55-85.55C192,189.92,192,209.57,192,209.57Z" transform="translate(-20.33 -172.34)"/><path class="cls-9" d="M253.16,223.92c11.56,33.48,4,72.27,10.67,88.47a20,20,0,0,0,1.12,2.32s-12-29.5-14-53-4.66-63.34-33.15-63.34C217.8,198.32,243.59,196.19,253.16,223.92Z" transform="translate(-20.33 -172.34)"/><path class="cls-9" d="M173.46,205.5s-41.26,25.05-54.52,82c0,0-6.78,33-16.21,41.26S114,315,119.43,267.85,170.54,194.07,173.46,205.5Z" transform="translate(-20.33 -172.34)"/><path class="cls-2" d="M213.09,352.08s-6.21,35.51,4.35,42.88-51.82,6.88-51.82,6.88,21.12-15.87,8.84-51.9S213.09,352.08,213.09,352.08Z" transform="translate(-20.33 -172.34)"/><path class="cls-6" d="M175.8,355.37s12.25,12.69,36.8.09c0,0-.73,4.46-.9,7.18s-34,.5-34,.5Z" transform="translate(-20.33 -172.34)"/><path class="cls-10" d="M265,347.1a381.06,381.06,0,0,0,2.46,45.66c2.83,23.67-25,21.39-15.27,60.2s11.28,47.54,11.28,47.54-7.44-34.44-6.69-54.81,2.45-19.13,6.69-25.33,9.49-24.38,9.3-28.15S264.66,357.65,265,347.1Z" transform="translate(-20.33 -172.34)"/><path class="cls-11" d="M176.42,286.12s-6.76-11.18-11.14-10.93c-8.35.46-11.33,5-18.22,8.49C139.52,287.48,176.42,286.12,176.42,286.12Z" transform="translate(-20.33 -172.34)"/><path class="cls-11" d="M201.71,285.74s5.64-12.54,12.76-11.62,18,3.85,19.29,6.5S201.71,285.74,201.71,285.74Z" transform="translate(-20.33 -172.34)"/><path class="cls-12" d="M201.81,285.46a39.62,39.62,0,0,1,4.78-5.08,19.91,19.91,0,0,1,4.94-3.34c5-2.24,21.57,5.39,25.66,5.48S205,285,203.1,286s-1.29-.54-1.29-.54" transform="translate(-20.33 -172.34)"/><path class="cls-13" d="M205.79,281.11s-3,4.69,1.41,4.25,22.8-1.92,22.8-1.92,2.46-2.2-1-3.28-13.4-4.36-16.58-3.39C210.1,277.49,208.48,278.32,205.79,281.11Z" transform="translate(-20.33 -172.34)"/><path class="cls-14" d="M209.14,278.23a9.46,9.46,0,0,1,3-1.44,11,11,0,0,1,4.64.08c.36.06,3.37.67,4,.85s.36,1.27.33,1.95c-.13,2.93-2.94,5.19-6.27,5s-5.94-2.64-5.81-5.57a4.54,4.54,0,0,1,.13-.91" transform="translate(-20.33 -172.34)"/><path class="cls-15" d="M219.2,277.36l1.19.27a4.33,4.33,0,0,1,.27,1.25c-.09,1.49-.61,4.25-3.63,5a7.07,7.07,0,0,1-6-1.59c-2.63-2.42-1.12-4.58-1.12-4.58a4.47,4.47,0,0,1,1.11-.56c.3,0-1.47,2.05.38,4.26s5.54,1.88,6.2,1.54c.51-.26,2.05-1.11,1.87-4.07Z" transform="translate(-20.33 -172.34)"/><circle class="cls-16" cx="194.73" cy="107.16" r="1.2"/><ellipse class="cls-13" cx="217.35" cy="279.07" rx="0.54" ry="1.91" transform="translate(-91.38 311.55) rotate(-87.47)"/><ellipse class="cls-13" cx="212.45" cy="281.99" rx="0.45" ry="0.55" transform="translate(-98.98 309.44) rotate(-87.47)"/><path class="cls-16" d="M201.81,285.46s7.05-9.78,13.35-8.79,17.11,4.68,18,4.93,3.8,1.3,4.4,1a12.33,12.33,0,0,0,3.68-2.62,12.55,12.55,0,0,1-4.58,1c-1.9-.14-18.62-4.78-21.94-4.77S207,278.31,201.81,285.46Z" transform="translate(-20.33 -172.34)"/><path class="cls-12" d="M176.26,286.07a39.89,39.89,0,0,0-5.37-4.45,20.38,20.38,0,0,0-5.32-2.7c-5.25-1.6-19.31,7.51-23.36,8.12s30.8-1,32.84-.27,1.21-.7,1.21-.7" transform="translate(-20.33 -172.34)"/><path class="cls-13" d="M171.78,282.25s3.58,4.27-.88,4.39-23.36.48-23.36.48-2.22-1.44,1-2.93,12.76-6,16-5.42C167.05,279.19,168.76,279.81,171.78,282.25Z" transform="translate(-20.33 -172.34)"/><path class="cls-14" d="M168.09,279.81a9.3,9.3,0,0,0-3.14-1.07,11,11,0,0,0-4.59.66c-.35.11-3.26,1.09-3.87,1.34s-.19,1.31-.08,2c.49,2.89,3.56,4.78,6.85,4.22s5.57-3.36,5.07-6.25a4.23,4.23,0,0,0-.24-.88" transform="translate(-20.33 -172.34)"/><path class="cls-15" d="M158,280.2l-1.14.41a4,4,0,0,0-.12,1.28c.27,1.46,1.14,4.13,4.23,4.54a7.08,7.08,0,0,0,5.8-2.33c2.3-2.73.54-4.68.54-4.68a4.33,4.33,0,0,0-1.18-.41c-.29,0,1.72,1.85.15,4.27s-5.26,2.55-6,2.29c-.53-.19-2.17-.84-2.36-3.8Z" transform="translate(-20.33 -172.34)"/><circle class="cls-16" cx="142.04" cy="109.46" r="1.2"/><ellipse class="cls-13" cx="160.05" cy="281.66" rx="1.91" ry="0.54" transform="translate(-65.33 -141.5) rotate(-9.66)"/><ellipse class="cls-13" cx="165.28" cy="283.95" rx="0.55" ry="0.45" transform="translate(-65.63 -140.59) rotate(-9.66)"/><path class="cls-16" d="M176.26,286.07s-8.21-8.83-14.33-7.06-15.5,6.47-16.3,6.82-3.13,1.52-3.75,1.35a19.1,19.1,0,0,1-5-2.62s3.54,1.53,5.4,1.15,16.78-6.81,20.08-7.21S170.22,279.62,176.26,286.07Z" transform="translate(-20.33 -172.34)"/><path class="cls-9" d="M196.62,266.1v5.57s34.14-19.81,40.81-11.79,5.36,8.68,5.36,8.68.66-4.75-6.87-13.92C235.92,254.64,224.62,254.81,196.62,266.1Z" transform="translate(-20.33 -172.34)"/><path class="cls-9" d="M175.45,266.1v5.57s-34.14-19.81-40.81-11.79-5.36,8.68-5.36,8.68-.66-4.75,6.87-13.92C136.15,254.64,147.45,254.81,175.45,266.1Z" transform="translate(-20.33 -172.34)"/><path class="cls-17" d="M181.14,314.29s-2.57,5.15,1.51,6.67c1.73.65,4-1.3,5,0,1.57,2.07,4.29,2.07,5.26.68,1.75-2.52,3-.79,3.5-.11s5.94.67,5.26-4.52c-.34-2.65-.89-3-.89-3" transform="translate(-20.33 -172.34)"/><path class="cls-11" d="M193.85,314.73s2.45,3.78-.55,5.7c0,0,3.35-.22,3.22.44S196.13,316.07,193.85,314.73Z" transform="translate(-20.33 -172.34)"/><path class="cls-8" d="M100.07,427.83a100.42,100.42,0,0,0,3.34,30.38c.64,2.38,1.35,4.65,2.1,6.8a42,42,0,0,0,3.32,7.05,70.58,70.58,0,0,1,6,13.41A72.47,72.47,0,0,1,118,515a32.28,32.28,0,0,0,3.28,11.64,33.8,33.8,0,0,0,15.27,14.92,13.15,13.15,0,0,1,6.56,6.91c2.33,5.91-.83,11.14-1.19,11.72.38,0,6.43-.43,9.19-5.53a10.7,10.7,0,0,0,1-7.23,74.09,74.09,0,0,1-11.15-16.78,76,76,0,0,1-7.36-34.9A99.77,99.77,0,0,1,150,442.78q-.36-16.25-.71-32.49Z" transform="translate(-20.33 -172.34)"/><path class="cls-11" d="M188.36,320.94a13.13,13.13,0,0,0-3.13-.17c-1,.18.77-5.86,1.87-6C187.1,314.73,184.08,319.08,188.36,320.94Z" transform="translate(-20.33 -172.34)"/><path class="cls-18" d="M173,335.42c0-.31,11.85-8.23,16.9-4.12,1.88,1.53,2.57.81,3.36.25a9.45,9.45,0,0,1,7.25-1.18c3.07.56,10.49,4.55,11.11,5.05s-5.4,9.14-11.85,9.64-13.45.79-17.31-.93S173.52,340.14,173,335.42Z" transform="translate(-20.33 -172.34)"/><path class="cls-19" d="M174,336c0-.29,11.25-7.76,16.05-3.88,1.78,1.43,2.44.76,3.19.23a9,9,0,0,1,6.89-1.11c2.91.53,10,4.29,10.55,4.76s-5.13,8.62-11.25,9.09-12.56,1.13-16.23-.49S174.46,340.44,174,336Z" transform="translate(-20.33 -172.34)"/><path class="cls-20" d="M174.32,336.05c0-.27,11.8-7.05,16-3.42,1.54,1.35,2.11.71,2.76.22a8.45,8.45,0,0,1,6.45-1.28c2.53.49,9.73,4.09,10.23,4.52s-6,8.23-11.32,8.67-10.44.7-13.82-.28S174.72,340.22,174.32,336.05Z" transform="translate(-20.33 -172.34)"/><path class="cls-21" d="M176,336.06s5.52,6.05,13.75,6.13,12.81.21,17.81-4.52l.44-1.2Z" transform="translate(-20.33 -172.34)"/><path class="cls-22" d="M176.2,336.05s11.94-.16,14.77,1.31a3.78,3.78,0,0,0,3,0c1.59-.7,13-.43,14.24-.95S179.55,334.34,176.2,336.05Z" transform="translate(-20.33 -172.34)"/><path class="cls-23" d="M174.82,336.19s13.46-.86,16.21.74a5.57,5.57,0,0,0,3.11.12c1.27-.49,14.41-.26,14.94-.58" transform="translate(-20.33 -172.34)"/><path class="cls-24" d="M176.2,336.47c-1.47-.08,4.24,6,9.85,6.33s12.08.7,13.55,0,8.77-4.95,8.86-5.81-9.61,2.4-14.61,2.65C186.65,340,177.92,336.09,176.2,336.47Z" transform="translate(-20.33 -172.34)"/><path class="cls-24" d="M177.6,335.27c-.46.4.13.5,1.93.21s10-.28,11.91.55a2.06,2.06,0,0,0,1.39,0c.49-.3,13.52.48,14.41.35.52-.07,1.67-.41.93-.57s-5.36-2.08-9.2-2.45-5.15,1.23-6.59,1.11-1.39-1.22-4.79-1.17A42.26,42.26,0,0,0,177.6,335.27Z" transform="translate(-20.33 -172.34)"/><path class="cls-13" d="M180.91,337.24s-1.19,4.54,2.86,5.56.41.05-.65-.9-1.64-2.86-1.8-4.66S180.91,337.24,180.91,337.24Z" transform="translate(-20.33 -172.34)"/><path class="cls-13" d="M186.35,332.49c-.09-.57-3.6.43-4.09,1.4s-.57.15.53-.17S186.39,332.74,186.35,332.49Z" transform="translate(-20.33 -172.34)"/><path class="cls-3" d="M160.48,397.81c.92.63,42,12,57.33-5.05h6.13l20.65,3-1.76,6-82.26,26Z" transform="translate(-20.33 -172.34)"/><path class="cls-8" d="M191,205c-38.72,20.31-44.22,85.39-31.35,115.59,13,30.55,8.51,56,13.1,64.18S161,425.11,161,425.11l-60.9,2.72c1-.05,2.3-16.26,17-33S101,331,100.06,324.14s-19.63-51.08,24.25-116.57c0,0,26.78-44.8,65.81-18.33C208,201.35,191,205,191,205Z" transform="translate(-20.33 -172.34)"/><path class="cls-9" d="M153.17,320.54s-3.93,26.19,9.82,40.6,7.21,55,4.59,56.32-36.68,40.61-36.68,40.61-25.54,6.55-22.92,0,29.88-55,31.64-70.73-33.33-62.87-31.83-66.8-14.69-41.91,0-83.83S153.17,320.54,153.17,320.54Z" transform="translate(-20.33 -172.34)"/><path class="cls-8" d="M262,195.05c17.86,21.54,26.85,62.87,21,102.82s17.68,62.21,17.68,62.21C277.12,349.13,260,341.13,248,327c-21.62-25.57-26.77-60.36-25.92-92,1.31-49.12-21-10.48-21-10.48s-23.79-33.63-38,21.61C143,324.59,103.91,363.28,85.57,348.88c0,0,20.59-25.47,18-40.53s-7.2-81.86,19-102.17,50.78-29.43,75.07-5.89C197.6,200.29,239.76,168.2,262,195.05Z" transform="translate(-20.33 -172.34)"/><path class="cls-9" d="M190.6,211.55s-24.88,1.91-28.9,20.14c-21.94,99.38-48.63,97.75-56,104.62S92.34,351,91,347.1c0,0,17.33-25.51,13.69-42.86-.51-2.4-1.85-24.78-1.85-24.78s10.1-83.26,51.54-85.55C190.6,191.91,190.6,211.55,190.6,211.55Z" transform="translate(-20.33 -172.34)"/><path class="cls-10" d="M173.08,204.92s-41.25,25.05-54.52,82c0,0-6.78,33-16.2,41.26s11.29-13.8,16.7-60.93S170.16,193.49,173.08,204.92Z" transform="translate(-20.33 -172.34)"/><path class="cls-9" d="M203.47,204.59s55.74-45.6,71.13,33c0,0,7.48,48.07,5.28,100.2,0,0-.52,3.94,6.82,8.94s-52.92-41.49-55.38-68-3.88-76.7-16.27-72S199.76,207.28,203.47,204.59Z" transform="translate(-20.33 -172.34)"/><path class="cls-10" d="M217.35,202.28s27.44,12,31.4,36.75,6.19,59.82,18.66,79.29-.47,5.18-4-32.93S249.49,190.18,217.35,202.28Z" transform="translate(-20.33 -172.34)"/><path class="cls-10" d="M130.08,327.83S155,373.4,149.48,386.5s-16.14,22.32-16.41,30.56,9.31-7.43,16.41-16.57,6.62-20.67.8-36.49S134,334.52,130.08,327.83Z" transform="translate(-20.33 -172.34)"/><path class="cls-25" d="M194.06,272.81s-2.35,23.42,11.08,30.46c0,0,10.47,4.42,27.66-1.15s30.62-30.78,30.62-30.78-9.49-11.62-15.23-12.44-41.09-.06-54.13,13.91l1.25,2s9-17.36,51.58-12.77c6.88.74,11.29,8.84,10.8,9.82s-10.91,19.61-21.45,25.87-29.14,3.93-29.79,3.77-11.63-5.08-11.14-26.69Z" transform="translate(-20.33 -172.34)"/><path class="cls-25" d="M184.15,273.53s2.35,23.41-11.08,30.45c0,0-10.47,4.42-27.66-1.15s-30.76-31.16-30.76-31.16,9.64-11.24,15.37-12.06,41.09-.06,54.13,13.92l-1.25,2s-9-17.35-51.57-12.77c-6.89.74-11.3,8.84-10.81,9.82s10.91,19.61,21.45,25.87,29.14,3.93,29.8,3.77,11.62-5.08,11.13-26.69Z" transform="translate(-20.33 -172.34)"/><path class="cls-26" d="M182.05,290.5s8.19-4.1,14.57,0" transform="translate(-20.33 -172.34)"/><path class="cls-7" d="M136.51,534.9a30,30,0,0,1,6.56,13.54,20.15,20.15,0,0,1,.36,5.1,19.92,19.92,0,0,1-1.55,6.62,17.75,17.75,0,0,0,8.55-8,17.16,17.16,0,0,0,1.88-7.64,48.82,48.82,0,0,0-1.24-7.64c-3.35-13.69-11.95-22.83-17.43-27.65-.13,2.46-.16,5.1,0,7.91A78.23,78.23,0,0,0,136.51,534.9Z" transform="translate(-20.33 -172.34)"/><path class="cls-7" d="M4.08,467" transform="translate(-20.33 -172.34)"/><path class="cls-9" d="M110.89,456a7.48,7.48,0,0,0-3.12,5.79c-.21,5.72-.17,16.75,2.79,23.47,4.13,9.37,16.09,22.56,15.57,26.33s9.49-13.69,7.39-21,15.6-42.93,18.76-46.2c.08-.08.16-.18.25-.29,5.56-6.72-3.26-15.85-10.33-10.75Z" transform="translate(-20.33 -172.34)"/><path class="cls-27" d="M110.67,603.05c1.64-.19,7.18,7-8.9,13.09S59.9,624.33,52,631.21s-20,4.58-21.28,3.27-1.64-9.82,0-11.13-2.29-7.53,17-9.83S73.36,607.3,110.67,603.05Z" transform="translate(-20.33 -172.34)"/><path class="cls-2" d="M57,614.54c-4.08,1.74-9.55,12.85-9.52,17.83,0,5.63.35,7.61,1.76,14.25,2.53,11.88,3.79,17.82,7.47,21.64,5.95,6.2,9.25-11.13,18.72-12.49,6.57-.94,19.88,16,23.47,11.58,4.81-5.89,6.39-16.2,6.91-19.64.12-.77,0-.39.91-8.73,1.36-13,2.15-14.15,1.18-15.49-7.38-10.18-13.74-12.85-16.91-13.17C73,608.47,65.47,610.91,57,614.54Z" transform="translate(-20.33 -172.34)"/><path class="cls-2" d="M102.08,616.72c3.6,3.89,13.18,8.73,13.34,19.16.1,7.37-6.08,14.34-9.93,13.63C98.83,648.27,97.93,612.24,102.08,616.72Z" transform="translate(-20.33 -172.34)"/><path class="cls-2" d="M75,654.26s10.93,19.58,7.37,21.4-10.24,2.07-11.6.39-7.63-19.79-7.63-19.79Z" transform="translate(-20.33 -172.34)"/><path class="cls-2" d="M62.7,655.53s9.34,20,6.43,21.83-7.85,1.68-9,0S53,657.53,53,657.53Z" transform="translate(-20.33 -172.34)"/><path class="cls-2" d="M91,652.2s7,20.72,3.51,22.54-9.56,1.9-10.88.22-8.19-20.05-8.19-20.05Z" transform="translate(-20.33 -172.34)"/><path class="cls-2" d="M105.49,649.51s1.74,13.62,1.79,21.54c0,3.9-10.54,4.35-11.86,2.67s-7.21-19.9-7.21-19.9Z" transform="translate(-20.33 -172.34)"/><path class="cls-6" d="M91,653.72s1.36-.91,1.36,0S94.4,667.1,94.4,667.1Z" transform="translate(-20.33 -172.34)"/><path class="cls-6" d="M78.83,654.85l1.24-.1s-.22.65.42,4.78C83.24,677.26,78.83,654.85,78.83,654.85Z" transform="translate(-20.33 -172.34)"/><path class="cls-6" d="M64.24,655.53h1.51s2.07,11.71,2.42,14S64.24,655.53,64.24,655.53Z" transform="translate(-20.33 -172.34)"/><path class="cls-6" d="M104.68,632.06s1.93-.24,1.26,2.13-.77,3.63-.59,4.12S104.68,632.06,104.68,632.06Z" transform="translate(-20.33 -172.34)"/><path class="cls-2" d="M58.5,614.54l-1.26-2.41s28.54-5.65,31-6c0,0,1.25,3.32,2.22,3.95S58.5,614.54,58.5,614.54Z" transform="translate(-20.33 -172.34)"/></svg>