<svg id="Livello_1" data-name="Livello 1" xmlns="http://www.w3.org/2000/svg" viewBox="0 0 409.52 578.42"><defs><style>.cls-1{fill:#f0f0f0;}.cls-2{fill:#06212c;}.cls-3{fill:#796264;}.cls-12,.cls-3{opacity:0.2;}.cls-23,.cls-30,.cls-4{fill:none;}.cls-4{stroke:#1d1d1b;stroke-width:0.25px;}.cls-23,.cls-30,.cls-34,.cls-4{stroke-miterlimit:10;}.cls-5{fill:#021921;}.cls-6{fill:#000d14;}.cls-7{fill:#051f29;}.cls-8{fill:#feddb4;}.cls-9{fill:#241f00;}.cls-10{fill:#2d2700;}.cls-11{fill:#302900;}.cls-12,.cls-14{fill:#1d1900;}.cls-13{fill:#f49f97;}.cls-15{fill:#37b8c2;}.cls-16{fill:#57bfc7;}.cls-17{fill:#2e979f;}.cls-18{fill:#bfa98b;}.cls-19{fill:#fff;}.cls-20{fill:#432918;}.cls-21{fill:#603c29;}.cls-22{fill:#1d1d1b;}.cls-23{stroke:#c1ab8c;}.cls-24{fill:#fddebd;}.cls-25{fill:#f8c1af;}.cls-26{fill:#b63f49;}.cls-27{fill:#6f292e;}.cls-28{fill:#802c31;}.cls-29{fill:#842d33;}.cls-30{stroke:#892f36;stroke-width:0.15px;}.cls-31{fill:#d64957;}.cls-32{fill:#332c00;}.cls-33,.cls-34{fill:#5b3926;}.cls-34{stroke:#392212;stroke-width:0.5px;}</style></defs><path class="cls-1" d="M274.93,662s-8.9,17.28,0,27.05-.87,0-.87,0-1.91,1.34-1.53,6.12,95.74,2.3,95.74,2.3,1.92-5-2.29-5.94c0,0,3.06-20.48-7.47-19.91s-20.87-6.32-33.51-8.43-5.75-10.72-8.24-12.44-5,1.53-5,3.64-5.61-5.41-7.6-6.06S274.93,662,274.93,662Z" transform="translate(-98.9 -133.89)"/><path class="cls-2" d="M311.79,654.43s1.52-7.33,5.55-2.52c0,0-.77,11.71,0,12.09s-4.19-1-5.55-8.62" transform="translate(-98.9 -133.89)"/><path class="cls-2" d="M288.11,673.25s-3.68,11.11,14.05,12.07,39,0,39,0S291.94,684,288.11,673.25Z" transform="translate(-98.9 -133.89)"/><path class="cls-2" d="M353.8,671.45s-5,20-.08,20.13c9.77.19,12.26,0,12.26,0s2.87-20.68-7.47-19.91Z" transform="translate(-98.9 -133.89)"/><path class="cls-3" d="M274.06,689.09s-4.54,6.76,1.95,7.48,92.26.94,92.26.94,3.07-6-2.29-5.94S274.06,689.09,274.06,689.09Z" transform="translate(-98.9 -133.89)"/><path class="cls-4" d="M320.83,662s-3.66,1.33-3.41,3.82,7.88-2.8,11.55-1.79,2,4.88,5.6,7.39,4.9-2.43,6.58-2.66,1.66,4.15,3.38,4.46,2.75-3.25,2.75-3.25-5.42,3.89-7,3.25-1-4.58-3.45-5.57-6.7,1.68-8.81.92S325.67,662.36,320.83,662Z" transform="translate(-98.9 -133.89)"/><path class="cls-1" d="M118.38,659s-19.48,26.75-13.91,42.32c0,0-2.82,3.26-.77,5.94s80.17,6.7,80.75,3.83,1.14-5.75-2.49-6.51c0,0,6.51-23.7-5-44.22S118.38,659,118.38,659Z" transform="translate(-98.9 -133.89)"/><path class="cls-2" d="M111.49,701.53s-2-17,5-20.62,52.55-1.51,56.25,1.74,1.2,20.57,0,21C171.3,704.15,111.49,701.53,111.49,701.53Z" transform="translate(-98.9 -133.89)"/><path class="cls-4" d="M169.32,677.21s-42.85-1.81-40.47-5.61c2.55-4.09,37.28.63,37.28-2.17s-34-4.73-31.15-7.92,28.47,0,28,1.53-27.19,1.53-28.34,2.81,27.32,4.85,29.37,6.64S129.74,675,129.74,675Z" transform="translate(-98.9 -133.89)"/><path class="cls-3" d="M104.47,701.34s-3.6,4.9.19,6.38c7.47,2.94,73.89,6.25,79.51,3.64,0,0,2.57-5.74-2.21-6.76C176.6,703.45,100.7,701.17,104.47,701.34Z" transform="translate(-98.9 -133.89)"/><path class="cls-5" d="M183.1,409.51s-32.17,42.38-39.83,77.62S115.19,647,100.38,653.1c-14.45,6,81.43,18.74,98.92,11.78a1.42,1.42,0,0,0,.82-1.72,138.61,138.61,0,0,1-3.23-55c4.6-30.64,5.38-70.95,7.28-88.72,1.79-16.81,4.79-35.86,6.13-42.9,1.53-8,3.12-4,5,3.45,2.3,9.19,5.26,40.92,10.73,62,10.57,40.82,18.38,75.32,21.45,95.24s1,21,0,29.64,33.19-3.09,45.95-7.69,29.48-23.1,28.39-27.19S305.66,588.74,296,560.15,268.64,436.57,257.4,423.3Z" transform="translate(-98.9 -133.89)"/><path class="cls-6" d="M183.1,409.51l-7.22,10.21,19.92,3.48c25.61,4.44,66.82,11.49,66.94,10.83h0c-1.87-4.9-2.15-5.36-2.15-5.36-2.31-3.88-3.47-5.82-3.19-5.36Z" transform="translate(-98.9 -133.89)"/><path class="cls-5" d="M183.1,409.51l-6.78,9.59s8.45,1.71,20,3.72c25.6,4.44,66.3,11.38,66.42,10.72V434c-1.87-4.9-2.15-5.36-2.15-5.36-2.31-3.88-3.47-5.82-3.19-5.36Z" transform="translate(-98.9 -133.89)"/><path class="cls-7" d="M171.62,441.3s-23.37,36-29.11,92.68-23,113.36-29.11,115.28,75.07,13.4,77.75,10.72-2.3-20.3,0-43.66,14.55-146.68,14.55-149,10.75-6.89,13.61,4.6,2.86,52.08,22.39,116.8,6,71.36,10,76.22,62.08-10.8,62.81-31.41c.43-12.25-32.94-83.49-38.68-124.85-1.86-13.39-9.35-36.81-13.05-51.7-1.46-5.87-.78-9.49-2.27-11.49-4.48-6-22-18.47-74.19-19.12a8.22,8.22,0,0,0-6.82,3.44C176.89,433.43,173.05,438.88,171.62,441.3Z" transform="translate(-98.9 -133.89)"/><path class="cls-7" d="M255.23,424.83c1.5,1.56,6.31,6.27,2.94,7s-78.38-12.38-78.9-13.15,2.81-7.27,6-6.38S253.51,423,255.23,424.83Z" transform="translate(-98.9 -133.89)"/><path class="cls-2" d="M180.48,440.66s-21.95,16.91-31.66,99.09S117.67,643.38,121.25,647s59.23,11.77,59.23,9.2,13.79-147.59,13.79-159.84,8.23-48,16.88-38.3,5.59-13.28,20.91,65.36,18.38,84.77,22.47,111.32-2.56,30.15,18.38,21.46,40.34-8.69,31.66-32.18S261.16,473.85,252,460.06s7.15-17.77-53.61-26C198.36,434.07,188.45,430.12,180.48,440.66Z" transform="translate(-98.9 -133.89)"/><path class="cls-2" d="M185.69,415.06s-5.27,1.82-.86,3.26,67.31,12.73,68.36,10.63,5.07-2.68-7.85-5S187.25,414.34,185.69,415.06Z" transform="translate(-98.9 -133.89)"/><path class="cls-8" d="M270,665.85" transform="translate(-98.9 -133.89)"/><path class="cls-9" d="M193.73,361.26c3.93-2.69-17.41-63.91,3.16-98.3,3.67-6.12,43.66-55.66,48.64-64.47s21.56-59.68,59.23-64c28.94-3.29,29.26,11.23,36.92,11.13,13.77-.17,36.36,12.55,38.66,45.49s-7.25,51.58-16.26,63.16S334.38,308,344,331s-5,59.36-13.28,64.53-7.85,6.73-13,7.47c-18.41,2.68,2.53-13,4.12-18.38s-1.23-16.47,1.06-28.34-12.47,20-40.84,20c-15.21,0-56.45-7.74-59.32-9.27s4.41-34.85,4.41-34.85-19.92,29.21-26.81,30.69a102.59,102.59,0,0,1-11.11,1.86Z" transform="translate(-98.9 -133.89)"/><path class="cls-10" d="M340.32,148s18.32-3.47,27.64,15.68,18.51,56.67-3.88,85-32.76,51.7-27.4,82.34-2.92,58.48-10,62,2.17-26.68-1.59-37.53-7.18-79.42-2.75-88.85S378,213,333.26,157.89l-6.16-11.61Z" transform="translate(-98.9 -133.89)"/><path class="cls-11" d="M339.23,154.58s36.19-6.34,30.6,65.7c0,0-22.91,33.85-24.85,47.52s-18.91,19.4-11.72,65.95-3.79,45.12-3.79,45.12,2.76-33.32,0-39.06-14.48-65.15,0-82.36S359,181.89,352,170.53,339.23,154.58,339.23,154.58Z" transform="translate(-98.9 -133.89)"/><path class="cls-8" d="M309.92,248.52s-11.35,11.77-10.61,14.38-20.17-2.82-18.16-5,10.47-10.47,8.68-19.66c0,0-9.65-8.17-11.21-14s-10.44-31.66,9.19-52.34S323,149.6,339.23,159.3s31.53,9.44,33.83,31.15-9.06,16.34-14.74,30.12-8.24,21.68-20.75,25S316,249.9,309.92,248.52Z" transform="translate(-98.9 -133.89)"/><path class="cls-12" d="M289.83,238.19a17.78,17.78,0,0,1-.32,6.61c-.21.68,16.8,7.67,17.68,6.68,1.39-1.57,2.73-3,2.73-3A24.83,24.83,0,0,1,289.83,238.19Z" transform="translate(-98.9 -133.89)"/><path class="cls-8" d="M305.69,454.06s-2.17,22.47,7.66,29.37S328,496.32,335.18,494c2.14-.69,2.65-1.19,2.16-1.74-1.12-1.28-7.61-2.8-11.1-7.45,0,0,9.07,7.4,12.26,7.28s8.17-3.58,7.53-6.13-4.85,1.28-6.25.64-7.28-4.73-8-5.75,5.67,4.28,8,4.73a11.64,11.64,0,0,0,7.53-1.28c2.3-1.28,3.44-2.55,2.42-4.34s-3.78,2.93-6.55,1.15a28.16,28.16,0,0,0-6.47-3.19c-1.53-.51,3.46-.13,7.35,2.29,0,0,2,.39,4.52-1.53s5.88-5.58,4.6-6.81-5.23,1.57-6.77,2.4-1.4-1.3-5.1-2.85-1.28-2.7-4.47-6.4,1.34-4.34,2.39-1.78-.35,3.57,2.21,5.23,3.7-3.19,3.31-5.87-7.91-11-10.59-12.13-4.36-6.51-9.78-8" transform="translate(-98.9 -133.89)"/><path class="cls-12" d="M331.19,458.53s2.94,2.81,3.45,4.21-.46-2,.86-1.53-1.63-2.93-4.95-2.68" transform="translate(-98.9 -133.89)"/><path class="cls-12" d="M328.22,447.34c-3.07,1.5-16.87,12.44-21.19,18.09-.92,1.2-1-1-1-1s-1.76-.76-1.2-2,18.68-17.1,19.64-16.59S327.4,443.82,328.22,447.34Z" transform="translate(-98.9 -133.89)"/><path class="cls-12" d="M338.82,470.72a1.57,1.57,0,0,1-.48,2c-1.12.77,5.42,1.34,6,2.24s.64-1.34-1-1.79S339.42,470.76,338.82,470.72Z" transform="translate(-98.9 -133.89)"/><path class="cls-12" d="M335.5,477.87s.48.9-.48.9,6.41,2.2,7.15,3.32,1.37-.32.6-.71S336.64,477.84,335.5,477.87Z" transform="translate(-98.9 -133.89)"/><path class="cls-12" d="M331.48,481.26c0-.09-.13,1.31-.67,1.24s8.08,4.34,8.22,5,.72-.29.2-.61S331.73,481.8,331.48,481.26Z" transform="translate(-98.9 -133.89)"/><path class="cls-12" d="M325.92,484.86s.35,1.28-.22,1.76,5,4.72,7.25,5.2,3.92,1,4,.8a11.5,11.5,0,0,0-3.47-1.69C332.69,490.8,326.05,486.14,325.92,484.86Z" transform="translate(-98.9 -133.89)"/><path class="cls-12" d="M340.32,487c.35.83,2.65,0,3.19-.44s1.66-1.33,1.08-1.2S340.32,487,340.32,487Z" transform="translate(-98.9 -133.89)"/><path class="cls-12" d="M344.4,482c-.24-.07-.54.61.23.51a20.12,20.12,0,0,0,4.3-2.31c.07-.18-.28-.53-.86,0S345.36,482.28,344.4,482Z" transform="translate(-98.9 -133.89)"/><path class="cls-12" d="M346.29,474.84c-.13,0,.16.57-.2.8s5.91-3,6.07-3.42-.58-.48-2.24.42S346.76,474.84,346.29,474.84Z" transform="translate(-98.9 -133.89)"/><path class="cls-12" d="M337.09,460.41v.93a1.28,1.28,0,0,1,1.63.48c.83,1,1.42,3.45,1.6,4.53s.83,1.56.8.83-.7-4.4-.8-4.66S337.67,460.26,337.09,460.41Z" transform="translate(-98.9 -133.89)"/><path class="cls-13" d="M351.38,473.78s.07,1.57.8,1.4,1.83-3.05,1.83-3.05l-.55-.63a5.7,5.7,0,0,1-1,1.39A5.49,5.49,0,0,1,351.38,473.78Z" transform="translate(-98.9 -133.89)"/><path class="cls-14" d="M348.22,481.7" transform="translate(-98.9 -133.89)"/><path class="cls-13" d="M348.22,482.13s0,1.15.49,1.3,2.28-2.18,2.28-2.18-.33-1.43-.52-1.06A20.54,20.54,0,0,1,348.22,482.13Z" transform="translate(-98.9 -133.89)"/><path class="cls-13" d="M344.13,487.7s.32,1.13.62,1.06a6,6,0,0,0,2-2.38l-.24-.66Z" transform="translate(-98.9 -133.89)"/><path class="cls-13" d="M335.5,493.24s-.08.72.32.56a22.63,22.63,0,0,0,2.39-1.14C338.35,492.52,338,492.28,335.5,493.24Z" transform="translate(-98.9 -133.89)"/><path class="cls-13" d="M342.64,466.5l-.43,2.83,1.25.28.92-2.9S343.34,465.71,342.64,466.5Z" transform="translate(-98.9 -133.89)"/><path class="cls-13" d="M505.55,199.3l1.06-.54s1.36,1,1.29,1.24a3.89,3.89,0,0,1-.55.8Z" transform="translate(-98.9 -133.89)"/><path class="cls-13" d="M504.81,183.81l1.92-1.14s1.65,1,1.69,1.3-.64,1.26-.64,1.26" transform="translate(-98.9 -133.89)"/><polyline class="cls-13" points="396.1 37.55 396.22 37.45 398.59 35.46 400.95 36.87 399.94 39.53"/><path class="cls-13" d="M476.64,167.76l1.67-1.82s2.49.72,2.7,1.24a11.12,11.12,0,0,1-.46,3.07Z" transform="translate(-98.9 -133.89)"/><polygon class="cls-13" points="342.91 60.85 342.55 57.04 344.15 56.32 346.07 57.82 342.91 60.85"/><path class="cls-8" d="M428.21,250.31l16.91-19.86s-6.11-13.54-2.72-19.53-2.36-17.06-.16-19.3,5.92,3.21,7.27,6.9,3.54,10,6.07,6.7,16.7-35.91,22.27-38.32,1.54,9.13-.68,12.36c-2.54,3.69-7.93,14.6-3.27,16.22,2.54.88,18.62-25.33,23.68-25.33,3,0,2.87,3-7.25,16.17s-8.47,14.69-7.42,15.35c1.85,1.18,20.07-20.65,24.45-18.08,2.25,1.32-2.94,6.73-8.09,12.27-4.07,4.37-10.8,12.55-9.95,13.09s9.78-5.14,12.82-8,7.92-2,3.37,3-8.37,5.16-17.71,14.79c-16,16.51-26.32,18.57-26.32,19.65s-11.64,27.24-11.64,27.24l-24.78-12.86Z" transform="translate(-98.9 -133.89)"/><path class="cls-12" d="M453.55,209a25.13,25.13,0,0,1,1.35,5.93c0,2.09,8.1,11.36,10.29,11.2s23.27-10.94,20.58-11.44c-5.23-1-20-7.86-20.58-10.72C463,192.79,460,212.48,453.55,209Z" transform="translate(-98.9 -133.89)"/><path class="cls-12" d="M448.89,199.51s-2.31,2.91-3.49,2.8,1.77,1,3.49-1.4C449.63,199.89,448.89,199.51,448.89,199.51Z" transform="translate(-98.9 -133.89)"/><path class="cls-12" d="M473.56,174.47s2.25,1.39,3,1.29.57.76-.33.48S472.17,174.66,473.56,174.47Z" transform="translate(-98.9 -133.89)"/><path class="cls-12" d="M472.56,183.87c.25.56-4.71-1.4-3.47-1.78" transform="translate(-98.9 -133.89)"/><path class="cls-12" d="M491,177.39s2.3,1.82,3.09,1.82.06.48-.39.48S490.22,177.92,491,177.39Z" transform="translate(-98.9 -133.89)"/><path class="cls-12" d="M484.87,185.68s2,1.76,2.76,1.55.42.94-1.62,0S484.87,185.68,484.87,185.68Z" transform="translate(-98.9 -133.89)"/><path class="cls-12" d="M498.54,189.8s2.08,2.35,2.64,2.35-.57,1-3-1.71C497,189.06,498.54,189.8,498.54,189.8Z" transform="translate(-98.9 -133.89)"/><path class="cls-12" d="M491.62,196.59a2.1,2.1,0,0,0,1,1.34c.7.34,1.55.1,2.37.69.16.12.17.17.17.19,0,.25-.57.54-2.56-.51-2.84-1.5-1.27-1.71-1.27-1.71Z" transform="translate(-98.9 -133.89)"/><path class="cls-12" d="M499.94,203.44s.32,2.53,2.17,2.46c.05,0,.25,0,.29-.11s-.7-.5-1.39-1.07A5,5,0,0,1,499.94,203.44Z" transform="translate(-98.9 -133.89)"/><path class="cls-12" d="M495.17,207.07s.11,2,1.4,2.25.85.75-.67.05S494.5,206.43,495.17,207.07Z" transform="translate(-98.9 -133.89)"/><path class="cls-14" d="M510.07,207.07" transform="translate(-98.9 -133.89)"/><path class="cls-15" d="M281.15,257.85v-6.64l25.54,10.73L300,265.51s14.81,7.66,16.85,9.7,28.6-5.61,40.85,0c0,0,37.79-18.38,45.45-15.83s-5.11-9.7,4.6-8.17-4.09-8.17,5.1-6.12,3.07.51,18.9,9.19,30.12,4.66,36.25,5.91,10.72,10.43,5.11,11.45-10.22,4.08-6.64,6.64S471.1,289,463.45,289s-8.69,2-14.81,5.62-9.71,18.89-19.92,19.4-27.57,6.64-37.27,4.6-29.11-2.24-31.66.41-21.45,5.71-31.15,3.16,4.4,15.32-14.17,30.13c-13.15,10.48-29.75,15.32-33.32,15.32s-22,27.57-18.41,31.15A33.84,33.84,0,0,1,272,422.11c0,11.4,4.46,25.24-12.62,16.51s-20.6-18.78-32.81-21.05-42-7-47.31-8.06-9.9-3.06,9-22.47,35.24-76.59,38.3-81.19-10-32.38,25-42.38C251.53,263.47,276,256.83,281.15,257.85Z" transform="translate(-98.9 -133.89)"/><path class="cls-16" d="M299.53,278.72s23.36,35.25,23.36,46.92c0,8.81.92,20.1-16.2,26.81,0,0-23.73,9-30.9,15.51S262.38,393,258.36,393s-67.51-.06-64.53-4.47c6.38-9.44,33.07-67.67,33.32-73.66S240.36,260,299.53,278.72Z" transform="translate(-98.9 -133.89)"/><path class="cls-17" d="M256,268.71a18.09,18.09,0,0,1,15,9.17c8.27,15.48,28.65,54.41,29.12,62.9.6,10.66,7.7,13.86,9.48,20.79s21.92,44.78,26.66,54.55S339,438,337.23,438,304.36,463.35,302,472.41s-9.53,2.25-5.83-20.3c0,0-9.38,7.75-7.19-9.87,2.52-20.31-10.84-40-15.05-52.33-5.1-14.9-25.25-53.93-29.4-58.19S225,311.47,225,299.74c0,0-2.37-21.85,14.21-28.25A40.2,40.2,0,0,1,256,268.71Z" transform="translate(-98.9 -133.89)"/><path class="cls-15" d="M257.79,271.83c5.93.35,12.37,7.66,14.95,12.58,7.58,14.46,26.25,50.8,26.69,58.73.54,9.95,7.05,12.93,8.68,19.4S332,407,336.32,416.12s4,20.84,0,23.05c-1.43.79-32.55,25.88-34.72,34.34s-10.85,0-5.43-21.4c0,0-9.76,8-7.05-10.95s-13-39.31-15.19-51.25-21.7-51.25-25.5-55.23-21.28-26.43-21.28-37.38c0,0-.26-18.92,14.93-24.9C248,270.07,253.56,271.59,257.79,271.83Z" transform="translate(-98.9 -133.89)"/><path class="cls-17" d="M310.25,288.49s12.07,26.62,12.83,30.25,1.67,2.49,3.33,3.45-.21-.81,3.57,0-8.62-14.74-12.83-22.79-2.49-21.44-1-20.87-7.66-6.51-10.72-6.32S310.25,288.49,310.25,288.49Z" transform="translate(-98.9 -133.89)"/><path class="cls-17" d="M407.34,258.81s26.81,16.47,31.21,17.62-32-14.75-33.13-15.13S407.34,261.11,407.34,258.81Z" transform="translate(-98.9 -133.89)"/><path class="cls-17" d="M412.51,251.72s23.72,14.17,26.41,13.22-25.07-12.83-25.07-14.37S413.85,251.34,412.51,251.72Z" transform="translate(-98.9 -133.89)"/><path class="cls-17" d="M465.74,272.21s-12.64-1.15-16.47-2.68,10.35,5.56,12.07,5.56S464.4,272.59,465.74,272.21Z" transform="translate(-98.9 -133.89)"/><path class="cls-17" d="M358.32,276.48a22.33,22.33,0,0,1,10.34,9.71c4,7.28-3.34-7.29-5.94-9.71s-2.1,0-3.25,0" transform="translate(-98.9 -133.89)"/><path class="cls-17" d="M259.34,395.53s-7.3,4.6-15.92,2.3,9.82,6.32,15.92,2.11S257.46,400.7,259.34,395.53Z" transform="translate(-98.9 -133.89)"/><path class="cls-16" d="M262.74,280.32s-33-11.16-30.85,19.49a7.26,7.26,0,0,0,1.6,4.08c3.77,4.59,14.77,19.06,26.29,44.09C274,378.87,276,390.11,283.3,403.89s11.12,31.92,9.08,36.26-1.79,10.21,6.13,5.36,27.06-21.45,30.64-22-23.24-57.7-26-62-8.17-6.13-10-19.66S265.41,281.06,262.74,280.32Z" transform="translate(-98.9 -133.89)"/><path class="cls-17" d="M297,449.34s3.32,1.79,2.29,3.57,1.56-2.8,7.42-7.14S300.81,449.34,297,449.34Z" transform="translate(-98.9 -133.89)"/><path class="cls-16" d="M243.62,267.65s22.5-3.52,25.78,1.67c0,0,21.19.65,26.3,2.89s4.09-4,1.28-4.56S265.32,257.27,243.62,267.65Z" transform="translate(-98.9 -133.89)"/><path class="cls-16" d="M283.3,254.53s-1.39,2.14,3.21,3,10.53,6.09,12.8,5.38S292.09,258.11,283.3,254.53Z" transform="translate(-98.9 -133.89)"/><path class="cls-17" d="M283.1,258.75a8.22,8.22,0,0,1-4.25,1.14c-2.55,0,17.36,4.56,18.13,5.09S283.1,258.75,283.1,258.75Z" transform="translate(-98.9 -133.89)"/><path class="cls-16" d="M321.84,279.81s26.2-7.49,33.86,2,9.86,29.91,8.38,31.45-23.26,9.36-29.57,6.38S312.24,280.57,321.84,279.81Z" transform="translate(-98.9 -133.89)"/><path class="cls-16" d="M368,276.48s19.91,24.26,18.12,30.65,26.05,6.13,34.22,1.53,12.85-15.32,18.81-17.11-26.61-22-33.94-23.75S370.26,271,368,276.48Z" transform="translate(-98.9 -133.89)"/><path class="cls-16" d="M412.51,254.53s-9.32-1.43-2.94,3,47.75,26.12,50.3,25.86,5.35-2.56-2.69-6.9S415.44,257.69,412.51,254.53Z" transform="translate(-98.9 -133.89)"/><path class="cls-16" d="M414.17,246.87c-.5-3.18.68,0,7.87,4.34s33.23,14.57,43.7,11.75,6.64,6.33,2.3,6.36S415.45,255,414.17,246.87Z" transform="translate(-98.9 -133.89)"/><path class="cls-16" d="M334.25,426.39c1.12-.17,3.33,10.18-3.57,13.76S301.15,463,301.57,467.72s-6.44,7.79-3.32-8.17C298.25,459.55,330.68,426.92,334.25,426.39Z" transform="translate(-98.9 -133.89)"/><path class="cls-16" d="M187.7,393s-12.61,9.32-8.48,10.6,49.84,7.94,57.25,11.37,25.27,25.39,28.85,15.69,1.84-23.49-6-24.76S204,394.45,187.7,393Z" transform="translate(-98.9 -133.89)"/><path class="cls-18" d="M314.69,202.36s-2.19-9.37-5.32-10.2c-5.95-1.58-9.08.92-14.69,1.79C288.52,194.89,314.69,202.36,314.69,202.36Z" transform="translate(-98.9 -133.89)"/><path class="cls-18" d="M329.54,207.86s7.88-6.37,12.25-3.39,10.56,8.53,10.51,10.7S329.54,207.86,329.54,207.86Z" transform="translate(-98.9 -133.89)"/><path class="cls-1" d="M329.7,207.71a29.65,29.65,0,0,1,4.83-1.75,15.17,15.17,0,0,1,4.36-.55c4,.2,12.38,10.72,15,12.15s-22-9.07-23.57-9.06-.66-.79-.66-.79" transform="translate(-98.9 -133.89)"/><path class="cls-19" d="M333.75,206.18s-3.54,2.07-.48,3.26,15.63,6.33,15.63,6.33,2.35-.63.46-2.48-7.36-7.32-9.77-7.75A10,10,0,0,0,333.75,206.18Z" transform="translate(-98.9 -133.89)"/><path class="cls-20" d="M336.92,205.4a6.91,6.91,0,0,1,2.44,0,8.1,8.1,0,0,1,3,1.6c.22.16,2,1.57,2.35,1.89s-.19,1-.43,1.39a4.49,4.49,0,0,1-7.77-4.37,3,3,0,0,1,.39-.55" transform="translate(-98.9 -133.89)"/><path class="cls-21" d="M343.82,208.18l.69.57a2.9,2.9,0,0,1-.23.91,3.74,3.74,0,0,1-4.07,2.1,5.21,5.21,0,0,1-3.44-3c-.92-2.47.79-3.38.79-3.38a3.07,3.07,0,0,1,.92,0c.19.09-1.66.86-1.17,2.93s3,3.07,3.56,3.07,1.72-.05,2.59-2.05Z" transform="translate(-98.9 -133.89)"/><circle class="cls-22" cx="241.49" cy="74.32" r="0.89"/><ellipse class="cls-19" cx="342.03" cy="208.69" rx="0.4" ry="1.41" transform="translate(-106.58 270.34) rotate(-60.6)"/><ellipse class="cls-19" cx="337.84" cy="208.97" rx="0.33" ry="0.41" transform="translate(-108.97 266.83) rotate(-60.6)"/><path class="cls-22" d="M329.7,207.71s7.88-4.08,11.69-1.33,9.69,8.77,10.16,9.22,2.07,2.12,2.55,2.15a9.07,9.07,0,0,0,3.29-.5,9.24,9.24,0,0,1-3.33-.89c-1.2-.73-10.65-9.34-12.84-10.44S335.49,204.74,329.7,207.71Z" transform="translate(-98.9 -133.89)"/><path class="cls-1" d="M314.58,202.28a29.82,29.82,0,0,0-2.74-4.33,15,15,0,0,0-3.11-3.11c-3.32-2.32-15.25.85-18.22.35s21.81,6.33,23.06,7.31,1-.22,1-.22" transform="translate(-98.9 -133.89)"/><path class="cls-19" d="M312.31,198.59s1.54,3.81-1.61,2.87-16.48-5-16.48-5-1.23-1.52,1.4-1.81,10.31-1.29,12.47-.15A10,10,0,0,1,312.31,198.59Z" transform="translate(-98.9 -133.89)"/><path class="cls-20" d="M310.29,196a7,7,0,0,0-2-1.47A8,8,0,0,0,305,194c-.27,0-2.54,0-3,0s-.43.87-.51,1.37a4.5,4.5,0,0,0,8.82,1.3,3.8,3.8,0,0,0,0-.67" transform="translate(-98.9 -133.89)"/><path class="cls-21" d="M303.13,194l-.89,0a3.14,3.14,0,0,0-.38.87,3.73,3.73,0,0,0,1.93,4.15,5.19,5.19,0,0,0,4.59-.31c2.24-1.38,1.45-3.15,1.45-3.15a3.14,3.14,0,0,0-.73-.56c-.21-.05.78,1.69-.87,3a4.73,4.73,0,0,1-4.7.24c-.33-.26-1.33-1.09-.78-3.2Z" transform="translate(-98.9 -133.89)"/><circle class="cls-22" cx="205.5" cy="62.24" r="0.89"/><ellipse class="cls-19" cx="302.82" cy="195.5" rx="0.4" ry="1.41" transform="matrix(0.15, -0.99, 0.99, 0.15, -33.67, 332.68)"/><ellipse class="cls-19" cx="305.96" cy="198.3" rx="0.33" ry="0.41" transform="translate(-33.75 338.17) rotate(-81.61)"/><path class="cls-22" d="M314.58,202.28s-3.73-8.05-8.43-8.21-12.33,1-13,1.06-2.54.35-2.94.09a14.2,14.2,0,0,1-2.9-3s2.13,1.88,3.52,2,13.31-.94,15.71-.47S311.82,196.39,314.58,202.28Z" transform="translate(-98.9 -133.89)"/><path class="cls-11" d="M333.79,193.83,332,197.51s29-1.93,30.8,5.55.7,7.48.7,7.48,2-2.92,0-11.43C363.48,199.11,356,195.52,333.79,193.83Z" transform="translate(-98.9 -133.89)"/><path class="cls-11" d="M319.09,190.13l-1.09,4s-20.39-20.73-26.7-16.33-5.5,5.12-5.5,5.12.46-3.5,7.6-8.55C293.4,174.33,301.4,176.65,319.09,190.13Z" transform="translate(-98.9 -133.89)"/><path class="cls-23" d="M310.57,213.37s-3.21,2.78-.87,5c1,.94,3.09.25,3.39,1.42.48,1.85,2.34,2.62,3.39,1.95,1.9-1.22,2.29.32,2.41.91s3.85,2.14,4.86-1.58c.52-1.9.24-2.29.24-2.29" transform="translate(-98.9 -133.89)"/><path class="cls-18" d="M319.09,217.27s.6,3.27-2,3.72c0,0,2.34.8,2.07,1.21S320.26,218.82,319.09,217.27Z" transform="translate(-98.9 -133.89)"/><path class="cls-18" d="M313.6,219.94a9.52,9.52,0,0,0-2.08-1c-.75-.17,2.18-3.77,3-3.58C314.5,215.36,311.21,217.46,313.6,219.94Z" transform="translate(-98.9 -133.89)"/><path class="cls-24" d="M297.34,225.62c.05-.22,10.56-2.81,13.11,1.42.94,1.57,1.62,1.23,2.33,1a7.14,7.14,0,0,1,5.46,1c2.05,1.19,6.32,6,6.63,6.46s-6.21,5.13-10.93,3.82-9.79-2.89-12.1-5.11S296.47,229.12,297.34,225.62Z" transform="translate(-98.9 -133.89)"/><path class="cls-25" d="M297.19,223c4,2.79,11.82.95,13.14,4.64.58,1.64,1.54,1.17,2.21,1a6.82,6.82,0,0,1,5.19,1c1.95,1.13,6,5.63,6.3,6.11s-5.87,4.83-10.36,3.58-8.62-3.39-11.45-4.52C297.52,232.91,296.09,222.23,297.19,223Z" transform="translate(-98.9 -133.89)"/><path class="cls-26" d="M297.41,223.46c1.91,2.2,11.6.77,12.94,4.61.51,1.47,1.32,1.05,1.91.87a6.43,6.43,0,0,1,4.93.75,41.08,41.08,0,0,1,6.13,5.85c.25.44-6.41,4.32-10.3,3.27a83.44,83.44,0,0,1-9.78-3.76C297.68,232.86,296.31,222.2,297.41,223.46Z" transform="translate(-98.9 -133.89)"/><path class="cls-27" d="M298.05,224.27s.43,6.49,5.45,9.07,10.3,4.68,12,4.58,6.72-2.06,6.72-2.06a15.85,15.85,0,0,0-11.69-4.92S300.87,224.62,298.05,224.27Z" transform="translate(-98.9 -133.89)"/><path class="cls-19" d="M299,224.63s-.19-.39-.14.91c0,.86,16.38,8.61,23.08,10a2.29,2.29,0,0,0-.38-.93C321.14,234,299,224.63,299,224.63Z" transform="translate(-98.9 -133.89)"/><path class="cls-19" d="M298.82,226.63s.1-1.2,1.16-.07,9.8,8.49,19.59,8.63c0,0-.05.67-1.23,1.15C314.5,237.91,296.71,230,298.82,226.63Z" transform="translate(-98.9 -133.89)"/><path class="cls-28" d="M298,225.54s1.45,7.22,7.29,9.39,8.58,4.2,13.35,2.11L321.9,236c-4.1-1.17-5.18-.54-6.67-.79a14.83,14.83,0,0,1-3.83-.55c-.65-.18-2.29-1-2.94-1.22a19,19,0,0,1-4.72-2.7C302.46,229.62,301,228.46,298,225.54Z" transform="translate(-98.9 -133.89)"/><path class="cls-29" d="M298.27,224.24a1.16,1.16,0,0,0,.62.82,66.69,66.69,0,0,0,6.22,3.1,20.21,20.21,0,0,1,4.16,2.12,5.09,5.09,0,0,0,2.13,1.13,25.48,25.48,0,0,1,2.54.4,9.25,9.25,0,0,1,3.42,1.1,21.45,21.45,0,0,1,2.21,1.39,5.05,5.05,0,0,0,2.33.88s-.18-.62-.18-.63c.11-.17-1.84-1.65-4.57-2.88s-3-.37-6-1.5c-2.63-1-3.07-1.87-6.17-3.56A38.35,38.35,0,0,0,298.27,224.24Z" transform="translate(-98.9 -133.89)"/><path class="cls-30" d="M298.42,226.63" transform="translate(-98.9 -133.89)"/><path class="cls-31" d="M298,224.63c-1-.43.94,8.6,6.37,10.29,4.06,1.27,8.95,3.66,10.18,3.54s7.41-2,7.69-2.6-7.28.11-11.38-1.08C299.72,231.54,299.27,224.81,298,224.63Z" transform="translate(-98.9 -133.89)"/><path class="cls-31" d="M297.84,224.13c-.42-.2,1.21,1.3,2.57,1.56s8.76,4,9.89,5.11a3.14,3.14,0,0,0,.33.22,1.34,1.34,0,0,0,.66.15,14.58,14.58,0,0,1,5.52,1.07c2.23.78,3.5,3.11,5.09,3.31.19,0,.77,0,.8-.16a.58.58,0,0,1-.42-.42c-.17-.55-3.18-3.49-5.82-4.74s-4.1.17-5.09-.28-1.51-3.43-4.05-3.82C304,225.61,299.72,225,297.84,224.13Z" transform="translate(-98.9 -133.89)"/><path class="cls-19" d="M301.62,230.72s-1,1.43.3,2.3.14.07-.11-.4a2.69,2.69,0,0,1-.05-1.85C301.93,230.12,301.62,230.72,301.62,230.72Z" transform="translate(-98.9 -133.89)"/><path class="cls-19" d="M307.34,226.92c.05-.26-1.61-.37-2,0s-.27,0,.26,0A9,9,0,0,0,307.34,226.92Z" transform="translate(-98.9 -133.89)"/><path class="cls-10" d="M339.23,154.58s46.31,7.53,34.13,58.85-19.79,30-17.64,41.42-9.09-45.72-2.77-63.68S342.5,153.67,339.23,154.58Z" transform="translate(-98.9 -133.89)"/><path class="cls-10" d="M335,151.77s-3.66-20.32-25.1-17.64-39.24,11.22-53.53,43.92S223.68,228,211,244.8,184,278,189.3,322.48s1.86,40.31.33,42.22,12.89,1.5,14.5-1.86c5.2-10.84,1.37-25.63,10.39-56a111.12,111.12,0,0,1,15.21-31.47A104,104,0,0,1,244,258.75c11.85-11.14,17-11.63,24.74-19.66,4.26-4.45,8-11.22,10.27-23.1C285.76,181.26,302.33,145.05,335,151.77Z" transform="translate(-98.9 -133.89)"/><path class="cls-11" d="M299.31,148.14s-35,24.22-55.69,72.14S221.4,265,214.89,274.46s-6.48,16.27-4.52,37.56-6.63,47.86-11.18,50.82c-.16.1-.61.5-.57.56.22.33,13.6-4.25,21.63-14.4,12.72-16.07,7.05-39.79,6.76-40.92-.87-3.47-1.93-5.85-2.13-10.4-.06-1.51-.38-12.16,6.15-21.15,5.12-7,11.47-8.95,16.43-11.74,10.25-5.75,10.22-12.8,25.39-44.51C290.35,183.7,298,164.44,304,159,307,156.25,317.85,141.07,299.31,148.14Z" transform="translate(-98.9 -133.89)"/><path class="cls-10" d="M330.68,153S302,128,280.63,170.15,233,243.91,241.17,257.52s31.92,3.57,37.45,25.87c4.3,17.3,4.68,18,4.68,18s5.58,11.19,7.27,14.79,6-11.5,4.43-17.51.73-23.17-5.49-33.65-4.34-19.5-.89-30.08,8.61-50.42,19.53-62.48,17.57-17.49,23.24-10.37" transform="translate(-98.9 -133.89)"/><path class="cls-11" d="M331.39,151.77s-32-18.49-52.77,26c-16,34.22-41.55,66.16-35,77s32.23,5.56,36.28,23.49,4.66,17.25,4.66,17.25,4.43,9.55,5.78,12.43,2.26-10.31,1-15.13,1.92-14-3.06-22.41-6.28-29.25-3.52-37.71,10.64-38.32,14.52-50.75c6.57-21.06,27.55-30,32.08-24.32" transform="translate(-98.9 -133.89)"/><path class="cls-32" d="M264.3,226.45S254,246,271.46,258.81,285.73,289.45,287,292.7s2.09-10.4.83-18.24-24.29-22.77-22.56-33.84c7.09-45.39,27.2-51.32,27.39-54.39S269.66,221.09,264.3,226.45Z" transform="translate(-98.9 -133.89)"/><path class="cls-10" d="M348.16,156.4s33.18,21,9.16,93.79c0,0-10.82,12.09-8.18,19.13s11.67,6.63,9.18,28-9.78,30-5.37,36.4-5.9.09-4.79-35.09-18.85-13.89-1.76-48.61S348.16,156.4,348.16,156.4Z" transform="translate(-98.9 -133.89)"/><path class="cls-11" d="M348.39,160.89s30.35,20,7.53,89.16c0,0-10.93,13.66-8.42,20.34s11.75,5.14,9.38,25.47-4.83,19.91-4.82,24.45c0,5.91-4,9.64-2.92-23.78s-18.07-12-1.83-44.95S348.39,160.89,348.39,160.89Z" transform="translate(-98.9 -133.89)"/><path class="cls-10" d="M246.82,231.81s46.66-19.53,51.87-32.94,22.43-65.1,33.15-35.61c0,0,8.05-6.9,11.11,5s-3.72,58.6,11,81.82c0,0-2.53-19,3.78-35.09s8.87-33.32,6.2-47.11c-2-10.38-10.56-16.72-22.84-13.72s-6.18,3-6.18,3-17.29-20.3-35.56-7.28S280.91,205.77,246.82,231.81Z" transform="translate(-98.9 -133.89)"/><path class="cls-11" d="M333.23,158.15c.72.77-12-15.32-25.66-8.17s-25.78,37-28.72,41.87-12.44,26.89-16.72,28.34,33.57-15.83,34.72-21.57S313,136.42,333.23,158.15Z" transform="translate(-98.9 -133.89)"/><path class="cls-32" d="M315.23,151.77s-17.23,2.68-30.89,42.76c0,0-6.74,11.54-11.49,14.81,0,0,6.51-1,13.53-15.19S288.68,174.11,315.23,151.77Z" transform="translate(-98.9 -133.89)"/><path class="cls-11" d="M335,159.3s12.91-2.93,11,21.25,2.55,53.43,4,54.32,1.78-9.44,3.7-18.64,14.7-39.31,2.3-54.25C346,150,335,159.3,335,159.3Z" transform="translate(-98.9 -133.89)"/><path class="cls-32" d="M345,159.17s7.78,4.47,6,33.06-1,31-1,31,1.4-33.71,2.55-37.54S353,157.07,345,159.17Z" transform="translate(-98.9 -133.89)"/><path class="cls-10" d="M221.4,306.49" transform="translate(-98.9 -133.89)"/><path class="cls-32" d="M359.18,208.57s-1.86,41.62-13.21,53.31c0,0-3.74,5.44,1.34,13.53s6.6,8.68,7.18,12-1.71,18.71-1.81,21,3.91-13.05-1.83-24.34-11.64-15.21-6.21-22.24C352.58,251.58,353.91,241.48,359.18,208.57Z" transform="translate(-98.9 -133.89)"/><path class="cls-33" d="M326.13,197.6s-5.9,12.74.29,19.34c0,0,5.05,4.54,15.83,4.76s23.28-11.37,23.28-11.37-3.08-8.41-6.15-10-23.16-8.07-33.25-2.74l.32,1.35s8.47-8,31.58,2.89c3.74,1.76,4.64,7.19,4.17,7.65s-10,8.92-17.15,10.39-17.2-3.48-17.54-3.7S322,211,326.45,199Z" transform="translate(-98.9 -133.89)"/><path class="cls-33" d="M320.4,196.06s-3.25,13.67-12.2,15c0,0-6.77.45-15.38-6s-11.24-23.59-11.24-23.59,7.63-4.46,11-3.8,23.18,8,27.8,18.43l-1.09.87s-1.68-11.55-26.58-17.29c-4-.92-8.1,2.78-8,3.43s2.32,13.19,7,18.78,15.67,7.91,16.07,8,7.54-.59,11.49-12.87Z" transform="translate(-98.9 -133.89)"/><path class="cls-34" d="M315.9,205.22s5.42-.7,8.22,2.85" transform="translate(-98.9 -133.89)"/></svg>